<svg width="24" height="24" viewBox="0 0 48 48" fill="none" xmlns="http://www.w3.org/2000/svg"><path d="M41.9973 41.9979V16.5665C41.9973 16.0281 41.7803 15.5125 41.3953 15.1362L30.5811 4.56585C30.2074 4.2006 29.7056 3.99609 29.1831 3.99609H8C6.89543 3.99609 6 4.89153 6 5.9961V41.9979C6 43.1024 6.89543 43.9979 8 43.9979H39.9973C41.1019 43.9979 41.9973 43.1024 41.9973 41.9979Z" fill="url(#svg_59e970c3fa__paint0_linear_11592_47294)"/><mask id="svg_59e970c3fa__a" style="mask-type:alpha" maskUnits="userSpaceOnUse" x="5" y="3" width="37" height="41"><path d="M41.9978 41.9979V16.5665C41.9978 16.0282 41.7808 15.5125 41.3958 15.1362L30.5811 4.56582C30.2074 4.20059 29.7056 3.99609 29.1831 3.99609H7.99902C6.89445 3.99609 5.99902 4.89153 5.99902 5.9961V41.9979C5.99902 43.1024 6.89445 43.9979 7.99902 43.9979H39.9978C41.1024 43.9979 41.9978 43.1024 41.9978 41.9979Z" fill="url(#svg_59e970c3fa__paint1_linear_11592_47294)"/></mask><g mask="url(#svg_59e970c3fa__a)"><rect x="29.646" y=".043" width="16.145" height="16.145" rx="2" fill="#B5BCC9"/></g><g filter="url(#svg_59e970c3fa__filter0_d_11592_47294)" fill="#fff"><path d="M17.4199 24.2461C17.4199 23.6938 17.8676 23.2461 18.4199 23.2461H29.5801C30.1324 23.2461 30.5801 23.6938 30.5801 24.2461V26.6461C30.5801 27.1984 30.1324 27.6461 29.5801 27.6461H18.4199C17.8676 27.6461 17.4199 27.1984 17.4199 26.6461V24.2461Z"/><path d="M17.4199 33.3438C17.4199 32.7915 17.8676 32.3438 18.4199 32.3438H29.5801C30.1324 32.3438 30.5801 32.7915 30.5801 33.3438V35.7437C30.5801 36.296 30.1324 36.7437 29.5801 36.7437H18.4199C17.8676 36.7437 17.4199 36.296 17.4199 35.7437V33.3438Z"/></g><defs><linearGradient id="svg_59e970c3fa__paint0_linear_11592_47294" x1="23.999" y1="3.996" x2="23.999" y2="43.998" gradientUnits="userSpaceOnUse"><stop stop-color="#353D51"/><stop offset="1" stop-color="#818A9C"/></linearGradient><linearGradient id="svg_59e970c3fa__paint1_linear_11592_47294" x1="23.998" y1="3.996" x2="23.998" y2="43.998" gradientUnits="userSpaceOnUse"><stop stop-color="#353D51"/><stop offset="1" stop-color="#818A9C"/></linearGradient><filter id="svg_59e970c3fa__filter0_d_11592_47294" x="9.42" y="17.246" width="29.16" height="29.498" filterUnits="userSpaceOnUse" color-interpolation-filters="sRGB"><feFlood flood-opacity="0" result="BackgroundImageFix"/><feColorMatrix in="SourceAlpha" values="0 0 0 0 0 0 0 0 0 0 0 0 0 0 0 0 0 0 127 0" result="hardAlpha"/><feOffset dy="2"/><feGaussianBlur stdDeviation="4"/><feComposite in2="hardAlpha" operator="out"/><feColorMatrix values="0 0 0 0 0 0 0 0 0 0 0 0 0 0 0 0 0 0 0.15 0"/><feBlend in2="BackgroundImageFix" result="effect1_dropShadow_11592_47294"/><feBlend in="SourceGraphic" in2="effect1_dropShadow_11592_47294" result="shape"/></filter></defs></svg>